<svg id="Layer_1" data-name="Layer 1" xmlns="http://www.w3.org/2000/svg" xmlns:xlink="http://www.w3.org/1999/xlink" viewBox="0 0 13171.91 2847.98"><defs><style>.cls-1{fill:none;}.cls-2{fill:#fcfcfc;}.cls-3{clip-path:url(#clip-path);}.cls-4{clip-path:url(#clip-path-2);}.cls-5{fill:#7e3bff;}.cls-6{fill:#fff;}</style><clipPath id="clip-path" transform="translate(270.74 176.87)"><path class="cls-1" d="M11751.49,934.13V806.32h741.73V934.13Zm0,543.44v-128h741.73v128Zm0-1086.73V263h741.73V390.84ZM1721.17,934.13V806.32H2463V934.13Zm0,543.44v-128H2463v128Zm0-1086.73V263H2463V390.84Z"/></clipPath><clipPath id="clip-path-2" transform="translate(270.74 176.87)"><rect class="cls-1" x="-5599.99" y="-11030.17" width="23930.85" height="23866.35"/></clipPath></defs><title>new-newspacenyc_logo-white</title><path class="cls-2" d="M8300.59,1478.1l502-1215.41h21.26l42.65,104.66L8430.12,1478.1Zm894,0-310-762.34,59.06-163.57,388.71,925.91ZM10116.46,936q6.69,76.17,34.52,141.08,32.86,85.83,98.68,155.64,64.19,66.33,152.89,102.1,82.1,37.21,192.26,37.27,134.84,0,230.18-52,96.85-50.19,162.73-144.22l98.69,66.53q-80.72,116.53-203.94,178.22-126.57,63.38-287.66,63.26-126.57,0-238.32-45.41-111.81-43.71-195.67-123.23-80.51-79.34-129.79-189.64a511.91,511.91,0,0,1-31.23-91.6A578,578,0,0,1,9985,934.33q28,1.68,62.59,1.64ZM10820,439.91q-95.3-50.19-225.2-50.19-103.54,0-192.26,37.26-85.64,35.75-152.89,103.75-62.39,64.86-100.26,155.64a496.45,496.45,0,0,0-32.94,136.09H9985a510,510,0,0,1,15.61-96.39,651.3,651.3,0,0,1,30.45-88.39A524.68,524.68,0,0,1,10086.94,534a635.39,635.39,0,0,1,73.88-87.61,696.72,696.72,0,0,1,90.55-69.68,593.89,593.89,0,0,1,105.12-53.48q110.22-43.69,238.32-43.75,322.23,0,473.48,226.89l-95.4,68.12Q10915.41,491.81,10820,439.91Zm-3215.08,475q-36.23,85.92-95.41,142.72-62.4,59.85-157.74,94-95.28,32.48-220.21,32.41H6985.24v299.88H6855.45V1070.49H7125q101.77,0,174.15-24.28,70.67-24.42,116.79-69.68,42.72-45.37,65.75-108.6,19.68-60,19.69-136.22,0-74.51-19.69-136.16-23-61.62-65.75-106.95-41.14-43.8-116.79-71.33Q7226.91,393,7125,393H6985.24V963.53H6855.45v-684h276.12a898,898,0,0,1,117.58,7.28q54.93,7.28,102.63,25.13,93.69,32.48,157.74,92.39,59.26,56.77,95.41,142.64,31.29,82.67,31.23,184.78T7604.93,914.91ZM5542.15,1221.28a376.51,376.51,0,0,0,24.6,34.12,337.26,337.26,0,0,0,64,59.84c23.1,16.27,51,29.27,83.93,39s70.07,14.57,111.74,14.57a469.08,469.08,0,0,0,50.12-2.49,195,195,0,0,0,46.86-10.51q46-14.55,78.87-40.54a195.85,195.85,0,0,0,52.56-63.12c0-1.18,1.18-3.82,3.35-8.14q18,0,35.37.79c11.47.64,23.22.78,35.3.78,10.95,0,21.32-.14,31.3-.78s20.21-.79,31.16-.79q-8.16,32.48-19.74,55.12-26.19,56.69-77.25,97.24-47.62,39-116.72,61.55-69,22.83-147.9,22.69-88.77,0-152.89-21-65.74-19.48-116.72-52c-17.46-11.82-33.41-23.76-47.64-35.57a285,285,0,0,1-39.44-40.55q-37.8-45.46-59.19-90.81l105.19-55.13C5526.72,1197.52,5534.41,1209.33,5542.15,1221.28ZM5718,721.21q36,21.85,85.49,44.62L5898.77,808q75.58,33.94,129.85,69.68A413.93,413.93,0,0,1,6124,955.39q39.36,43.8,55.9,94.09a372.7,372.7,0,0,1,18.05,74.55H6069.71a125.57,125.57,0,0,1-4.87-18.63,91.35,91.35,0,0,0-5-17.07,273.52,273.52,0,0,0-18.12-33.2,175.2,175.2,0,0,0-24.61-30.05q-27.93-27.45-70.72-53.48Q5907,949,5849.49,923l-95.34-43.77a553.53,553.53,0,0,1-60-27.55q-27.06-14.58-51.77-30.77-52.56-34.07-82.21-69.69-32.88-34.05-50.92-84.25a200.85,200.85,0,0,1-14-50.27,394.28,394.28,0,0,1-4.07-58.39q0-61.51,23-116.74a311,311,0,0,1,65.74-89.11q39.47-35.71,98.62-56.75,59.27-19.49,125-19.43,119.88,0,198.82,48.57,75.6,47,123.3,128.08l-101.9,61.61q-34.56-56.7-85.51-92.39t-134.71-35.64q-92.22,0-139.75,45.35-49.42,47-49.35,123.17,0,77.85,44.41,121.64Q5681.75,699.29,5718,721.21ZM3153.77,279.49a994.05,994.05,0,0,0,113.46,0l312.26,765.14-54.2,144.22Zm1068.36,1202.8-119.95-299.86-157.8-390.68-299.14,688.83-59.19-131.22,302.49-693.83L3737.3,281.06h123.29l368.1,912.66,412.66-935.37h115Zm-4004-821.91c6.57,8.67,13.38,17.07,20.6,25.13s14.44,16.54,22.18,25.14v760.23h-120V569.63c12,15.16,24.67,30.25,37.8,45.34S205,645.29,218.09,660.38Zm828.41,823.5L379.18,704.15a76.89,76.89,0,0,1-8.21-9.72c-3.34-4.26-7.15-9.18-11.54-14.55-4.39-4.34-9.26-9.72-14.77-16.28-8.79-10.76-17.05-20.73-24.67-29.92S304.12,615,295.32,605.27a126.46,126.46,0,0,0-10.63-12.15c-3.87-3.8-7.41-7.28-10.7-10.56-4.46-6.42-6.29-9.45-5.77-8.92s-2-2.95-7.35-10.5c0,2.23-1.7.27-5-5.71s-4.92-7.74-4.92-5.64c-13.2-15.1-26.58-30.51-40.3-46.19S183.58,474,170.38,457.76c1.06,1.11-2.23-2.17-9.84-9.7S146.3,433.42,140.86,427V279.49h21.39l713.32,833.13c4.39,5.51,8.72,10.88,13.18,16.27A186.33,186.33,0,0,0,903.52,1145c5.44,6.56,10.37,12.73,14.83,18.76s8.72,11.56,13.12,16.93c4.33,6.44,8.79,13,13.13,19.42s9.31,13.65,14.82,21.14a245.14,245.14,0,0,1-5-48.57c-1-7.6-1.84-14.69-2.43-21.12s-.84-14-.84-22.7c0-7.48-.27-14.84-.8-21.92s-.78-13.26-.78-18.64V290.83h118.31V1483.88Z" transform="translate(270.74 176.87)"/><g class="cls-3"><g class="cls-4"><rect class="cls-5" width="13171.91" height="2847.98"/></g></g><path class="cls-6" d="M4675.74,2254.87h-57.67l-141.54-229.41H4475l1,12.86q2.76,36.63,2.76,66.94v149.61H4436v-287.8h57.08l141.14,228.08h1.19c-.26-3-.78-14-1.58-32.94s-1.18-33.73-1.18-44.36V1967.07h43.11Zm319.23,0H4832.18v-287.8H4995v39.77H4879.22v78.34h108.46v39.36H4879.22v90.3H4995Zm408.33,0h-51.18l-48.83-171.66c-2.09-7.47-4.71-18.37-7.87-32.41s-5.05-23.88-5.7-29.39c-1.31,8.39-3.41,19.28-6.37,32.66s-5.44,23.37-7.42,29.93l-47.63,170.87h-51.18l-37.21-144.1-37.79-143.7h48l41.14,167.71q9.65,40.36,13.78,71.27,2.16-16.74,6.5-37.4t7.87-33.48l46.85-168.1h46.65l48,168.9q6.9,23.42,14.57,70.08,3-28.17,14.18-71.66l40.94-167.32h47.64Zm463.18-156.57,68.12-131.23h51.17l-95.86,176.11v111.69h-47.24V2144.76l-95.47-177.69h51.17Zm493.37,12.2q0,70.29-35.1,109.32t-99.54,39c-43.44,0-76.77-13-100.06-38.72s-35-62.47-35-110,11.75-84,35.17-109.44,56.83-38.19,100.26-38.19q64.18,0,99.22,38.84T6359.85,2110.5Zm-219.67,0q0,53.16,21.44,80.59t63.59,27.55q41.93,0,63.32-27.16t21.33-81q0-52.93-21.14-80.31t-63.12-27.29q-42.3,0-63.84,27.29T6140.18,2110.5Zm409.24,29.4v115h-47.11v-287.8h81.37c37.13,0,64.56,7,82.54,20.86q26.58,20.88,26.64,63,0,53.75-55.78,76.5l81.24,127.44h-53.54l-68.9-115Zm0-39h32.67q32.88,0,47.64-12.21c9.85-8.13,14.7-20.21,14.7-36.22,0-16.27-5.25-28-15.88-35s-26.64-10.63-48-10.63h-31.1Zm511.15,153.94H7006l-90.28-130.33-27.83,22.58v107.75h-47v-287.8h47v137.4q19.29-23.62,38.46-45.53l77.68-91.87h53.54q-75.39,88.58-108,126.11Zm426.37-251.58q-40.53,0-63.77,28.75t-23.23,79.25q0,53,22.31,80.19t64.69,27.16a173.8,173.8,0,0,0,35.44-3.67c11.42-2.5,23.24-5.51,35.57-9.31V2246c-22.57,8.52-48.16,12.86-76.77,12.86-42.13,0-74.41-12.86-97-38.33s-33.86-62.07-33.86-109.58q0-44.88,16.41-78.47c11-22.45,26.77-39.63,47.5-51.58s45.16-18,73.11-18q44.08,0,81.49,18.5l-16.94,39.24a258.8,258.8,0,0,0-30.84-12.2A112.41,112.41,0,0,0,7486.94,2003.29Zm213.52,251.58v-287.8h47v287.8Zm303.16,0h-47V2007.36H7872v-40.29h216.27v40.29h-84.64ZM8294,2098.3l68.11-131.23h51.18l-95.8,176.11v111.69h-47.25V2144.76l-95.53-177.69h51.19Z" transform="translate(270.74 176.87)"/></svg>