<?xml version="1.0" encoding="utf-8"?>
<!-- Generator: Adobe Illustrator 18.1.1, SVG Export Plug-In . SVG Version: 6.00 Build 0)  -->
<svg version="1.1" id="Layer_1" xmlns="http://www.w3.org/2000/svg" xmlns:xlink="http://www.w3.org/1999/xlink" x="0px" y="0px"
	 viewBox="0 0 282.7 188.5" enable-background="new 0 0 282.7 188.5" xml:space="preserve">
<g>
	<defs>
		<path id="SVGID_1_" d="M189,137.2c1,1.5,2,3,3.1,4.3c2.2,2.7,4.9,5.3,8.1,7.6c2.9,2.1,6.5,3.7,10.7,5c4.2,1.2,8.9,1.9,14.2,1.9
			c2.2,0,4.4-0.1,6.4-0.3c2-0.2,4-0.6,6-1.3c3.9-1.2,7.2-3,10-5.2c2.8-2.2,5-4.9,6.7-8c0-0.2,0.2-0.5,0.4-1c1.5,0,3,0,4.5,0.1
			c1.5,0.1,3,0.1,4.5,0.1c1.4,0,2.7,0,4-0.1c1.3-0.1,2.6-0.1,4-0.1c-0.7,2.8-1.5,5.1-2.5,7c-2.2,4.8-5.5,8.9-9.8,12.4
			c-4,3.3-9,5.9-14.9,7.8c-5.9,1.9-12.1,2.9-18.8,2.9c-7.5,0-14-0.9-19.5-2.7c-5.6-1.7-10.5-3.9-14.9-6.6c-2.2-1.5-4.3-3-6.1-4.5
			c-1.8-1.5-3.5-3.2-5-5.2c-3.2-3.9-5.7-7.7-7.5-11.6l13.4-7C187,134.1,188,135.6,189,137.2z M211.3,73.5c3.1,1.9,6.7,3.7,10.9,5.7
			l12.1,5.4c6.4,2.9,11.9,5.8,16.5,8.9c4.6,2.7,8.7,6.1,12.1,9.9c3.3,3.7,5.7,7.7,7.1,12c1.1,3.2,1.9,6.3,2.3,9.5h-11.5h-4.8
			c-0.3-0.8-0.5-1.6-0.6-2.4c-0.2-0.8-0.4-1.5-0.6-2.2c-0.7-1.5-1.5-2.9-2.3-4.2c-0.8-1.3-1.9-2.6-3.1-3.8c-2.4-2.3-5.4-4.6-9-6.8
			c-3.3-1.9-7.5-4-12.3-6.2l-12.1-5.6c-2.8-1.1-5.3-2.3-7.6-3.5c-2.3-1.2-4.5-2.5-6.6-3.9c-4.5-2.9-8-5.8-10.5-8.9
			c-2.8-2.9-4.9-6.5-6.5-10.7c-0.8-1.9-1.4-4.1-1.8-6.4c-0.4-2.3-0.5-4.8-0.5-7.4c0-5.2,1-10.2,2.9-14.9c2.1-4.3,4.9-8,8.4-11.3
			c3.3-3,7.5-5.4,12.6-7.2c5-1.7,10.3-2.5,15.9-2.5c10.2,0,18.6,2.1,25.3,6.2c6.4,4,11.6,9.4,15.7,16.3l-13,7.8
			c-2.9-4.8-6.6-8.7-10.9-11.8c-4.3-3-10-4.5-17.1-4.5c-7.8,0-13.7,1.9-17.8,5.8c-4.2,4-6.3,9.2-6.3,15.7c0,6.6,1.9,11.8,5.7,15.5
			C205.8,69.8,208.3,71.7,211.3,73.5z M23.5,65.8c0.8,1.1,1.7,2.2,2.6,3.2c0.9,1,1.8,2.1,2.8,3.2v96.8H13.6V54.2
			c1.5,1.9,3.1,3.8,4.8,5.8C20.1,61.9,21.8,63.9,23.5,65.8z M128.9,170.6L44,71.4c-0.3-0.3-0.6-0.7-1-1.2c-0.4-0.5-0.9-1.2-1.5-1.9
			c-0.6-0.6-1.2-1.2-1.9-2.1c-1.1-1.4-2.2-2.6-3.1-3.8c-1-1.2-2-2.4-3.1-3.6c-0.4-0.5-0.9-1.1-1.4-1.5c-0.5-0.5-0.9-0.9-1.4-1.3
			c-0.6-0.8-0.8-1.2-0.7-1.1c0.1,0.1-0.3-0.4-0.9-1.3c0,0.3-0.2,0-0.6-0.7c-0.4-0.8-0.6-1-0.6-0.7c-1.7-1.9-3.4-3.9-5.1-5.9
			c-1.7-2-3.4-4-5.1-6.1c0.1,0.1-0.3-0.3-1.3-1.2c-1-1-1.8-1.9-2.5-2.7V17.3h2.7l90.8,106c0.6,0.7,1.1,1.4,1.7,2.1
			c0.6,0.7,1.2,1.4,1.9,2.1c0.7,0.8,1.3,1.6,1.9,2.4c0.6,0.8,1.1,1.5,1.7,2.2c0.6,0.8,1.1,1.7,1.7,2.5c0.6,0.8,1.2,1.7,1.9,2.7
			c-0.4-2.1-0.6-4.1-0.6-6.2c-0.1-1-0.2-1.9-0.3-2.7c-0.1-0.8-0.1-1.8-0.1-2.9c0-1,0-1.9-0.1-2.8c-0.1-0.9-0.1-1.7-0.1-2.4V18.7
			h15.1v151.8H128.9z"/>
	</defs>
	<clipPath id="SVGID_2_">
		<use xlink:href="#SVGID_1_"  overflow="visible"/>
	</clipPath>
	<g clip-path="url(#SVGID_2_)">
		<defs>
			<rect id="SVGID_3_" x="-717" y="-1422" width="3045.6" height="3037.4"/>
		</defs>
		<clipPath id="SVGID_4_">
			<use xlink:href="#SVGID_3_"  overflow="visible"/>
		</clipPath>
		<rect x="-9.6" y="3.1" clip-path="url(#SVGID_4_)" fill="#8F55FF" width="297.6" height="182.5"/>
	</g>
</g>
</svg>
